<?xml version="1.0" encoding="UTF-8"?>
<svg id="_레이어_2" data-name="레이어 2" xmlns="http://www.w3.org/2000/svg" viewBox="0 0 932.52 236.96">
  <defs>
    <style>
      .cls-1 {
        fill: #222;
      }

      .cls-1, .cls-2, .cls-3, .cls-4, .cls-5, .cls-6 {
        stroke-width: 0px;
      }

      .cls-7 {
        stroke: #163c9d;
      }

      .cls-7, .cls-8 {
        stroke-linecap: round;
        stroke-linejoin: round;
        stroke-width: 2.7px;
      }

      .cls-7, .cls-8, .cls-9 {
        fill: none;
      }

      .cls-2 {
        opacity: .2;
      }

      .cls-2, .cls-4 {
        fill: #163c9d;
      }

      .cls-8 {
        stroke: #333;
      }

      .cls-3 {
        fill: #f5f5f5;
      }

      .cls-5 {
        fill: #333;
      }

      .cls-6 {
        fill: #0c2677;
      }

      .cls-9 {
        stroke: #0c2677;
        stroke-miterlimit: 10;
        stroke-width: 2px;
      }
    </style>
  </defs>
  <g id="_레이어_1-2" data-name="레이어 1">
    <g>
      <g>
        <path class="cls-5" d="M244.38,223.73c2.11-.02,3.63,1.29,3.64,3.19,0,1.89-1.53,3.2-3.64,3.19-2.11,0-3.65-1.3-3.64-3.19,0-1.9,1.53-3.2,3.64-3.19ZM244.38,229.09c1.41,0,2.44-.91,2.44-2.17s-1.02-2.16-2.44-2.16c-1.43,0-2.45.88-2.44,2.16-.02,1.27,1.01,2.16,2.44,2.17ZM242.88,231.2h1.22v1.69h6.56v-1.69h1.22v5.55h-9v-5.55ZM250.66,235.74v-1.88h-6.56v1.88h6.56ZM251.88,230.49h-1.22v-7.45h1.22v7.45Z"/>
        <path class="cls-5" d="M265.29,224.82c0,1.08,0,2.34-.37,4.08h2.04v1.02h-12.72v-1.02h9.45c.39-1.75.39-3,.38-4.08v-.02h-8.22v-1.02h9.44v1.03ZM255.8,231.84h9.55v4.91h-9.55v-4.91ZM264.13,235.74v-2.94h-7.11v2.94h7.11Z"/>
        <path class="cls-5" d="M271.66,227.57v-1.11h-3.19v-1h3.19v-2.16h1.22v2.16h3.14v1h-3.16v1.11c0,2.29,1.57,4.55,3.62,5.47l-.7.95c-1.59-.72-2.89-2.24-3.51-4.07-.6,1.94-1.89,3.55-3.48,4.32l-.7-.95c2.04-.95,3.56-3.33,3.56-5.72ZM279.59,236.96h-1.23v-7.31h-3.05v-1.02h3.05v-5.59h1.23v13.92Z"/>
        <path class="cls-5" d="M282.68,224.34h6.47v4.94h-5.19v3.28c2.3,0,4.36-.1,6.84-.5l.12,1.03c-2.55.4-4.66.5-7.06.5h-1.16v-5.31h5.2v-2.92h-5.23v-1.02ZM293.37,236.96h-1.22v-13.92h1.22v13.92Z"/>
      </g>
      <g>
        <path class="cls-9" d="M466.26,180.58c0,16.48-88.99,29.85-198.75,29.85-96.15,0-176.36-10.25-194.78-23.88"/>
        <polygon class="cls-6" points="77.92 184.5 68.75 180.58 69.94 190.48 77.92 184.5"/>
      </g>
      <g>
        <path class="cls-5" d="M240.41,38.7h4.97v-4.97h1.2v4.97h6.48v1.02h-12.66v-1.02ZM251.55,30.59c-.02,1.7-.02,3.61-.52,6.41l-1.25-.14c.52-2.66.52-4.6.53-6.27v-.38h-8.56v-1.02h9.8v1.39Z"/>
        <path class="cls-5" d="M259.07,29.84h-4.19v-1.02h5.45c0,3.32-1.88,5.83-5.41,7.33l-.61-.92c2.88-1.17,4.52-3.05,4.75-5.39ZM256.66,36.63h9.38v5.05h-1.2v-4.05h-8.17v-1ZM266.04,35.99h-1.17v-3.67h-1.89v3.58h-1.17v-7.83h1.17v3.23h1.89v-3.5h1.17v8.19Z"/>
        <path class="cls-5" d="M279.59,34.9h-1.23v-1.45h-3.7v-.97h3.7v-1.67h-3.5c-.87,2.19-3.02,3.66-6.11,4.41l-.44-1.02c3.41-.79,5.38-2.45,5.62-4.69h-4.91v-1.02h6.27c0,.46-.05.91-.13,1.33h3.21v-2.03h1.23v7.11ZM270.59,35.52h9v3.39h-7.75v1.62h8.22v1.02h-9.44v-3.58h7.73v-1.45h-7.77v-1Z"/>
        <path class="cls-5" d="M284.79,31.76v-1.31h-2.67v-1.02h6.41v1.02h-2.55v1.31c0,2.4,1.09,4.8,3,5.91l-.75.91c-1.37-.82-2.34-2.32-2.82-4.09-.5,1.91-1.51,3.55-2.9,4.41l-.78-.92c1.94-1.16,3.07-3.7,3.06-6.22ZM287.46,32.81h2.34v-4.67h1.16v12.83h-1.16v-7.16h-2.34v-1ZM293.77,41.68h-1.17v-13.89h1.17v13.89Z"/>
      </g>
      <g>
        <path class="cls-5" d="M207.74,130.72h-5.18v-1.03h6.42c0,3.93-1.85,7.52-6.38,9.75l-.69-.97c3.59-1.78,5.54-4.46,5.82-7.75ZM212.58,133.85h2.25v1.03h-2.25v7.2h-1.22v-13.89h1.22v5.66Z"/>
        <path class="cls-5" d="M216.3,129.43h5.38v5.97h-5.38v-5.97ZM220.53,134.43v-4.03h-3.08v4.03h3.08ZM222.86,137c2.88,0,4.66.93,4.67,2.52,0,1.59-1.8,2.53-4.67,2.53s-4.67-.94-4.66-2.53c-.02-1.59,1.77-2.52,4.66-2.52ZM222.86,141.08c2.11,0,3.44-.58,3.45-1.56-.02-.97-1.34-1.54-3.45-1.55-2.13,0-3.45.58-3.44,1.55-.02.98,1.3,1.56,3.44,1.56ZM227.45,136.64h-1.17v-3.73h-1.84v3.28h-1.16v-7.72h1.16v3.42h1.84v-3.69h1.17v8.44Z"/>
        <path class="cls-5" d="M233.08,130.66v-.55h-3.14v-1.02h7.48v1.02h-3.11v.55c0,1.79,1.39,3.52,3.42,4.25l-.64.97c-1.56-.57-2.77-1.73-3.38-3.17-.6,1.61-1.88,2.88-3.53,3.48l-.64-.97c2.05-.73,3.53-2.59,3.53-4.56ZM231.92,137.02h9.08v4.88h-9.08v-4.88ZM239.8,140.89v-2.89h-6.66v2.89h6.66ZM241,136.33h-1.23v-3.62h-2.81v-1.03h2.81v-3.48h1.23v8.14Z"/>
        <path class="cls-5" d="M250.92,131.07v-.72h-3.14v-1.02h7.48v1.02h-3.11v.72c0,1.8,1.39,3.54,3.42,4.23l-.64.98c-1.56-.57-2.77-1.73-3.38-3.17-.6,1.61-1.88,2.88-3.53,3.5l-.64-1c2.05-.72,3.53-2.55,3.53-4.55ZM249.92,137.47h1.23v3.28h8.08v1.03h-9.31v-4.31ZM258.84,138.39h-1.23v-5.33h-2.86v-1.02h2.86v-3.84h1.23v10.19Z"/>
        <path class="cls-5" d="M269.31,135.21l-.62.98c-1.58-.58-2.8-1.75-3.42-3.22-.59,1.66-1.84,2.93-3.48,3.56l-.67-.98c2.12-.74,3.51-2.62,3.52-4.78v-1.72h1.2v1.77c0,1.91,1.44,3.68,3.48,4.39ZM263.34,137.47h1.25v3.28h8.06v1.03h-9.31v-4.31ZM270.8,128.19h1.22v4.27h2.09v1.05h-2.09v4.95h-1.22v-10.27Z"/>
        <path class="cls-5" d="M291.72,140.3h-12.72v-1.03h5.72v-3.39h-4.22v-6.52h9.64v6.52h-4.22v3.39h5.8v1.03ZM288.95,134.89v-4.55h-7.25v4.55h7.25Z"/>
        <path class="cls-5" d="M293.73,129.57h1.2v7.88c2.12-.02,4.31-.18,6.64-.67l.17,1.05c-2.47.52-4.66.69-6.89.69h-1.12v-8.94ZM304.28,142.08h-1.22v-13.89h1.22v13.89Z"/>
        <path class="cls-5" d="M307.3,129.47h6.48v1.02h-5.25v2.89h4.64v1h-4.64v3.36c2.55,0,4.19-.08,6.09-.42l.14,1.02c-2.02.33-3.72.42-6.41.42h-1.06v-9.28ZM318.17,142.11h-1.22v-7.66h-2.94v-1.02h2.94v-5.25h1.22v13.92Z"/>
        <path class="cls-5" d="M321.19,129.08h6.34v3.81h-5.12v1.97c2.48,0,4.34-.07,6.59-.44l.14,1.02c-2.34.38-4.23.45-6.8.45h-1.12v-3.97h5.09v-1.81h-5.12v-1.03ZM327.34,137.04c2.92,0,4.7.92,4.7,2.52s-1.78,2.5-4.7,2.5-4.7-.91-4.69-2.5c0-1.59,1.77-2.52,4.69-2.52ZM327.34,141.07c2.16,0,3.48-.56,3.47-1.52,0-.95-1.31-1.53-3.47-1.53s-3.48.58-3.48,1.53c0,.95,1.32,1.52,3.48,1.52ZM331.95,136.75h-1.22v-8.55h1.22v8.55Z"/>
      </g>
      <g>
        <line class="cls-9" x1="167.51" y1="55.11" x2="360.33" y2="55.11"/>
        <polygon class="cls-6" points="358.87 60.1 367.51 55.11 358.87 50.12 358.87 60.1"/>
      </g>
      <g>
        <path class="cls-5" d="M619.08,30.32h-5.18v-1.03h6.42c0,3.93-1.85,7.52-6.38,9.75l-.69-.97c3.59-1.78,5.54-4.46,5.82-7.75ZM623.91,33.45h2.25v1.03h-2.25v7.2h-1.22v-13.89h1.22v5.66Z"/>
        <path class="cls-5" d="M627.63,29.02h5.38v5.97h-5.38v-5.97ZM631.87,34.02v-4.03h-3.08v4.03h3.08ZM634.2,36.6c2.88,0,4.66.93,4.67,2.52,0,1.59-1.8,2.53-4.67,2.53s-4.67-.94-4.66-2.53c-.02-1.59,1.77-2.52,4.66-2.52ZM634.2,40.68c2.11,0,3.44-.58,3.45-1.56-.02-.97-1.34-1.54-3.45-1.55-2.13,0-3.45.58-3.44,1.55-.02.98,1.3,1.56,3.44,1.56ZM638.79,36.24h-1.17v-3.73h-1.84v3.28h-1.16v-7.72h1.16v3.42h1.84v-3.69h1.17v8.44Z"/>
        <path class="cls-5" d="M644.41,30.26v-.55h-3.14v-1.02h7.48v1.02h-3.11v.55c0,1.79,1.39,3.52,3.42,4.25l-.64.97c-1.56-.57-2.77-1.73-3.38-3.17-.6,1.61-1.88,2.88-3.53,3.48l-.64-.97c2.05-.73,3.53-2.59,3.53-4.56ZM643.26,36.62h9.08v4.88h-9.08v-4.88ZM651.13,40.49v-2.89h-6.66v2.89h6.66ZM652.34,35.93h-1.23v-3.62h-2.81v-1.03h2.81v-3.48h1.23v8.14Z"/>
        <path class="cls-5" d="M662.26,30.35v-.52h-3.14v-1.03h7.48v1.03h-3.11v.5c0,1.81,1.39,3.54,3.42,4.23l-.64.98c-1.55-.56-2.77-1.73-3.37-3.16-.59,1.62-1.88,2.92-3.54,3.55l-.64-.98c2.06-.74,3.53-2.62,3.53-4.61ZM665.57,36.51c2.88,0,4.66.95,4.66,2.58s-1.77,2.58-4.66,2.59c-2.89-.02-4.66-.95-4.66-2.59,0-1.63,1.77-2.59,4.66-2.58ZM665.57,40.7c2.12,0,3.44-.6,3.44-1.61s-1.31-1.62-3.44-1.62-3.45.61-3.44,1.62c0,1.01,1.3,1.62,3.44,1.61ZM670.18,36.07h-1.23v-3.64h-2.8v-1.02h2.8v-3.62h1.23v8.28Z"/>
        <path class="cls-5" d="M685.21,39.9h-12.72v-1.02h5.72v-3h-4.22v-7.11h1.23v2.52h7.22v-2.52h1.2v7.11h-4.23v3h5.8v1.02ZM682.45,34.88v-2.59h-7.22v2.59h7.22Z"/>
        <path class="cls-5" d="M693.23,31.76v-1.31h-2.67v-1.02h6.41v1.02h-2.55v1.31c0,2.4,1.09,4.8,3,5.91l-.75.91c-1.37-.82-2.34-2.32-2.82-4.09-.5,1.91-1.51,3.55-2.9,4.41l-.78-.92c1.94-1.16,3.07-3.7,3.06-6.22ZM695.9,32.81h2.34v-4.67h1.16v12.83h-1.16v-7.16h-2.34v-1ZM702.21,41.68h-1.17v-13.89h1.17v13.89Z"/>
        <path class="cls-5" d="M704.18,34.27h5.23v-2.69h1.2v2.69h6.2v1h-12.64v-1ZM715.32,39.12c0,1.59-1.9,2.53-4.88,2.53s-4.87-.94-4.86-2.53c0-1.61,1.88-2.55,4.86-2.55s4.87.94,4.88,2.55ZM705.68,28.51h9.53v1.17c0,1.12,0,2.25-.39,3.69l-1.2-.14c.38-1.43.38-2.46.38-3.55v-.17h-8.31v-1ZM710.45,40.68c2.22,0,3.64-.59,3.66-1.56-.02-.99-1.44-1.6-3.66-1.61-2.21,0-3.65.62-3.64,1.61,0,.97,1.43,1.56,3.64,1.56Z"/>
      </g>
      <g>
        <path class="cls-5" d="M633.6,135.3h-1.23v-1.45h-3.7v-.97h3.7v-1.67h-3.5c-.87,2.19-3.02,3.66-6.11,4.41l-.44-1.02c3.41-.79,5.38-2.45,5.62-4.69h-4.91v-1.02h6.27c0,.46-.05.91-.13,1.33h3.21v-2.03h1.23v7.11ZM624.6,135.93h9v3.39h-7.75v1.62h8.22v1.02h-9.44v-3.58h7.73v-1.45h-7.77v-1Z"/>
        <path class="cls-5" d="M638.8,132.16v-1.31h-2.67v-1.02h6.41v1.02h-2.55v1.31c0,2.4,1.09,4.8,3,5.91l-.75.91c-1.37-.82-2.34-2.32-2.82-4.09-.5,1.91-1.51,3.55-2.9,4.41l-.78-.92c1.94-1.16,3.07-3.7,3.06-6.22ZM641.48,133.21h2.34v-4.67h1.16v12.83h-1.16v-7.16h-2.34v-1ZM647.79,142.08h-1.17v-13.89h1.17v13.89Z"/>
        <path class="cls-5" d="M661.13,131.52h2.91v-3.33h1.23v7.45h-1.23v-3.11h-2.9c-.24,1.64-1.67,2.73-3.55,2.73-2.12,0-3.62-1.31-3.61-3.22,0-1.88,1.49-3.21,3.61-3.2,1.86,0,3.28,1.08,3.55,2.67ZM657.59,134.24c1.4,0,2.41-.92,2.41-2.19s-1.01-2.17-2.41-2.16c-1.43-.02-2.44.88-2.44,2.16s1.01,2.18,2.44,2.19ZM656.32,136.35h1.23v1.77h6.48v-1.77h1.23v5.55h-8.95v-5.55ZM664.04,140.89v-1.8h-6.48v1.8h6.48Z"/>
        <path class="cls-5" d="M680.29,137.29h-5.8v4.8h-1.2v-4.8h-5.72v-1.02h12.72v1.02ZM669.21,128.97h9.42v5.41h-9.42v-5.41ZM677.41,133.41v-3.44h-7v3.44h7Z"/>
        <path class="cls-5" d="M681.93,129.89h5.2v1.02h-3.98v6.69c1.91,0,3.23-.08,4.78-.39l.11,1.03c-1.67.34-3.09.4-5.22.41h-.89v-8.75ZM693.29,142.08h-1.17v-7.28h-2.05v6.56h-1.12v-12.86h1.12v5.28h2.05v-5.59h1.17v13.89Z"/>
        <path class="cls-5" d="M695.16,129.86h2.97v-1.56h1.22v1.56h2.94v.98h-7.12v-.98ZM698.74,131.6c1.76,0,2.98.92,2.98,2.38,0,1.43-1.23,2.36-2.98,2.36s-2.98-.93-2.97-2.36c0-1.45,1.22-2.38,2.97-2.38ZM698.74,135.41c1.11,0,1.88-.59,1.88-1.44s-.77-1.47-1.88-1.47-1.88.59-1.88,1.47.77,1.44,1.88,1.44ZM702.45,137.22c2.92,0,4.66.88,4.67,2.44,0,1.52-1.75,2.39-4.67,2.39s-4.67-.87-4.66-2.39c-.02-1.56,1.73-2.44,4.66-2.44ZM702.45,141.1c2.16,0,3.44-.54,3.45-1.44-.02-.95-1.3-1.48-3.45-1.47-2.16-.02-3.45.52-3.44,1.47-.02.9,1.27,1.45,3.44,1.44ZM707.04,136.99h-1.17v-3.98h-1.86v3.48h-1.16v-8.02h1.16v3.52h1.86v-3.8h1.17v8.8Z"/>
      </g>
      <g>
        <line class="cls-9" x1="565.02" y1="55.11" x2="757.84" y2="55.11"/>
        <polygon class="cls-6" points="756.38 60.1 765.02 55.11 756.38 50.12 756.38 60.1"/>
      </g>
      <g>
        <line class="cls-9" x1="174.68" y1="115.58" x2="367.51" y2="115.58"/>
        <polygon class="cls-6" points="176.14 120.57 167.51 115.58 176.14 110.6 176.14 120.57"/>
      </g>
      <g>
        <line class="cls-9" x1="572.19" y1="115.58" x2="765.02" y2="115.58"/>
        <polygon class="cls-6" points="573.65 120.57 565.02 115.58 573.65 110.6 573.65 120.57"/>
      </g>
      <g>
        <rect class="cls-3" width="137.51" height="170.58" rx="10" ry="10"/>
        <g>
          <path class="cls-2" d="M78.7,55.03H29.89c-2.56,0-4.64,2.08-4.64,4.64v87.52c0,2.56,2.08,4.64,4.64,4.64h48.81c2.56,0,4.64-2.08,4.64-4.64V59.67c0-2.56-2.08-4.64-4.64-4.64ZM44.06,141.61h-9.81v-9.81h9.81v9.81ZM44.06,126.33h-9.81v-9.81h9.81v9.81ZM44.06,111.04h-9.81v-9.81h9.81v9.81ZM44.06,95.76h-9.81v-9.81h9.81v9.81ZM59.2,141.61h-9.81v-9.81h9.81v9.81ZM59.2,126.33h-9.81v-9.81h9.81v9.81ZM59.2,111.04h-9.81v-9.81h9.81v9.81ZM59.2,95.76h-9.81v-9.81h9.81v9.81ZM74.34,141.61h-9.81v-25.1h9.81v25.1ZM74.34,111.04h-9.81v-9.81h9.81v9.81ZM74.34,95.76h-9.81v-9.81h9.81v9.81ZM74.34,77.61h-40.1v-13.78h40.1v13.78Z"/>
          <rect class="cls-8" x="22.28" y="51.83" width="58.08" height="96.79" rx="5.72" ry="5.72"/>
          <path class="cls-8" d="M79.93,85.49h35.73v30.68c0,2.32-1.88,4.2-4.2,4.2h-27.34c-2.32,0-4.2-1.88-4.2-4.2v-30.68h0Z" transform="translate(-5.14 200.72) rotate(-90)"/>
          <rect class="cls-8" x="80.35" y="92.19" width="34.88" height="6.25"/>
          <circle class="cls-7" cx="99.4" cy="110.12" r="4.42"/>
          <circle class="cls-7" cx="104.79" cy="110.12" r="4.42"/>
          <g>
            <rect class="cls-8" x="31.27" y="60.62" width="40.1" height="13.78"/>
            <rect class="cls-8" x="31.27" y="82.74" width="9.81" height="9.81"/>
            <rect class="cls-8" x="46.41" y="82.74" width="9.81" height="9.81"/>
            <rect class="cls-8" x="61.55" y="82.74" width="9.81" height="9.81"/>
            <rect class="cls-8" x="31.27" y="98.02" width="9.81" height="9.81"/>
            <rect class="cls-8" x="46.41" y="98.02" width="9.81" height="9.81"/>
            <rect class="cls-8" x="61.55" y="98.02" width="9.81" height="9.81"/>
            <rect class="cls-8" x="31.27" y="113.3" width="9.81" height="9.81"/>
            <rect class="cls-8" x="46.41" y="113.3" width="9.81" height="9.81"/>
            <rect class="cls-8" x="31.27" y="128.59" width="9.81" height="9.81"/>
            <rect class="cls-8" x="46.41" y="128.59" width="9.81" height="9.81"/>
            <rect class="cls-8" x="61.55" y="113.3" width="9.81" height="25.1"/>
          </g>
        </g>
        <g>
          <path class="cls-1" d="M52.2,22.6h-5.48v-1.62h7.47c0,4.67-1.94,8.77-7.22,11.37l-1.11-1.51c3.87-1.93,5.96-4.62,6.35-8.24ZM58.39,25.53h2.36v1.63h-2.36v8.02h-1.95v-15.86h1.95v6.21Z"/>
          <path class="cls-1" d="M62.12,20.72h6.26v6.96h-6.26v-6.96ZM66.57,26.2v-3.99h-2.6v3.99h2.6ZM69.73,29.24c3.32-.02,5.44,1.11,5.45,2.95,0,1.88-2.13,3.01-5.45,3.01s-5.46-1.12-5.45-3.01c0-1.85,2.1-2.97,5.45-2.95ZM69.73,33.69c2.17,0,3.47-.51,3.48-1.49,0-.94-1.31-1.45-3.48-1.46-2.21,0-3.51.52-3.5,1.46,0,.98,1.29,1.49,3.5,1.49ZM75.09,28.92h-1.86v-4.03h-1.58v3.52h-1.83v-8.77h1.83v3.64h1.58v-3.94h1.86v9.58Z"/>
          <path class="cls-1" d="M80.91,21.93v-.12h-3.3v-1.58h8.58v1.58h-3.29v.14c0,1.91,1.28,3.88,3.74,4.71l-.98,1.55c-1.78-.61-3.03-1.82-3.73-3.32-.7,1.67-2.02,3-3.9,3.62l-1-1.53c2.53-.84,3.88-2.95,3.88-5.04ZM79.8,29.24h10.56v5.78h-10.56v-5.78ZM88.45,33.44v-2.65h-6.7v2.65h6.7ZM90.37,28.56h-1.95v-3.85h-2.74v-1.6h2.74v-3.78h1.95v9.23Z"/>
        </g>
      </g>
      <g>
        <rect class="cls-3" x="397.51" width="137.51" height="170.58" rx="10" ry="10"/>
        <g>
          <path class="cls-2" d="M448.41,56.01v94.62c0,.66.53,1.19,1.19,1.19h13.67c.66,0,1.19-.53,1.19-1.19v-14.55c0-.66.53-1.19,1.19-1.19h7.17c.66,0,1.19.53,1.19,1.19v14.55c0,.66.53,1.19,1.19,1.19h13.67c.66,0,1.19-.53,1.19-1.19V56.01c0-.66-.53-1.19-1.19-1.19h-39.29c-.66,0-1.19.53-1.19,1.19Z"/>
          <rect class="cls-8" x="445.42" y="51.83" width="41.67" height="97.01"/>
          <rect class="cls-8" x="411.91" y="72.39" width="33.52" height="76.45"/>
          <rect class="cls-8" x="487.1" y="72.39" width="33.52" height="76.45"/>
          <line class="cls-8" x1="455.44" y1="64.31" x2="477.08" y2="64.31"/>
          <line class="cls-8" x1="455.44" y1="72.39" x2="477.08" y2="72.39"/>
          <line class="cls-8" x1="455.44" y1="80.48" x2="477.08" y2="80.48"/>
          <line class="cls-8" x1="455.44" y1="88.57" x2="477.08" y2="88.57"/>
          <line class="cls-7" x1="421.71" y1="80.48" x2="435.62" y2="80.48"/>
          <line class="cls-8" x1="421.71" y1="88.57" x2="435.62" y2="88.57"/>
          <line class="cls-8" x1="421.71" y1="96.65" x2="435.62" y2="96.65"/>
          <line class="cls-7" x1="421.71" y1="104.74" x2="435.62" y2="104.74"/>
          <line class="cls-8" x1="421.71" y1="112.82" x2="435.62" y2="112.82"/>
          <line class="cls-8" x1="421.71" y1="120.91" x2="435.62" y2="120.91"/>
          <line class="cls-8" x1="421.71" y1="129" x2="435.62" y2="129"/>
          <line class="cls-8" x1="510.81" y1="80.48" x2="496.9" y2="80.48"/>
          <line class="cls-7" x1="510.81" y1="88.57" x2="496.9" y2="88.57"/>
          <line class="cls-8" x1="510.81" y1="96.65" x2="496.9" y2="96.65"/>
          <line class="cls-8" x1="510.81" y1="104.74" x2="496.9" y2="104.74"/>
          <line class="cls-8" x1="510.81" y1="112.82" x2="496.9" y2="112.82"/>
          <line class="cls-7" x1="510.81" y1="120.91" x2="496.9" y2="120.91"/>
          <line class="cls-8" x1="510.81" y1="129" x2="496.9" y2="129"/>
          <line class="cls-8" x1="455.44" y1="96.65" x2="477.08" y2="96.65"/>
          <line class="cls-8" x1="455.44" y1="104.74" x2="477.08" y2="104.74"/>
          <line class="cls-8" x1="455.44" y1="112.82" x2="477.08" y2="112.82"/>
          <rect class="cls-8" x="461.48" y="131.9" width="9.56" height="16.94"/>
          <line class="cls-8" x1="404.4" y1="148.84" x2="528.12" y2="148.84"/>
        </g>
      </g>
      <g>
        <rect class="cls-3" x="795.02" width="137.51" height="170.58" rx="10" ry="10"/>
        <g>
          <circle class="cls-2" cx="866.33" cy="117.01" r="19.68"/>
          <rect class="cls-2" x="814.69" y="82.18" width="103.27" height="7.57" rx="1" ry="1"/>
          <rect class="cls-2" x="814.69" y="144.26" width="103.27" height="7.57" rx="1" ry="1"/>
          <polygon class="cls-8" points="924.03 79.63 803.5 79.63 863.77 51.83 924.03 79.63"/>
          <rect class="cls-8" x="812.13" y="79.63" width="103.27" height="7.57"/>
          <rect class="cls-8" x="812.13" y="141.7" width="103.27" height="7.57"/>
          <rect class="cls-8" x="885.18" y="87.2" width="23.92" height="7.57"/>
          <rect class="cls-8" x="885.18" y="134.13" width="23.92" height="7.57"/>
          <rect class="cls-8" x="890.05" y="94.77" width="14.19" height="39.37"/>
          <rect class="cls-8" x="851.81" y="87.2" width="23.92" height="7.57"/>
          <rect class="cls-8" x="851.81" y="134.13" width="23.92" height="7.57"/>
          <rect class="cls-8" x="818.44" y="87.2" width="23.92" height="7.57"/>
          <rect class="cls-8" x="818.44" y="134.13" width="23.92" height="7.57"/>
          <rect class="cls-8" x="823.3" y="94.77" width="14.19" height="39.37"/>
          <g>
            <circle class="cls-8" cx="863.77" cy="114.45" r="19.68"/>
            <g>
              <path class="cls-8" d="M858.51,122.39h6.56c2.19,0,3.97-1.78,3.97-3.97h0c0-2.19-1.78-3.97-3.97-3.97h-2.59c-2.19,0-3.97-1.78-3.97-3.97h0c0-2.19,1.78-3.97,3.97-3.97h6.56"/>
              <line class="cls-8" x1="863.77" y1="102.96" x2="863.77" y2="125.94"/>
            </g>
          </g>
          <path class="cls-7" d="M863.77,59.59h0c4.15,0,7.53,3.37,7.53,7.53v7.53h-15.05v-7.53c0-4.15,3.37-7.53,7.53-7.53Z"/>
        </g>
        <g>
          <path class="cls-1" d="M847.22,22.6h-5.48v-1.62h7.47c0,4.67-1.94,8.77-7.22,11.37l-1.11-1.51c3.87-1.93,5.96-4.62,6.35-8.24ZM853.41,25.53h2.36v1.63h-2.36v8.02h-1.95v-15.86h1.95v6.21Z"/>
          <path class="cls-1" d="M857.13,20.72h6.26v6.96h-6.26v-6.96ZM861.58,26.2v-3.99h-2.6v3.99h2.6ZM864.74,29.24c3.32-.02,5.44,1.11,5.45,2.95,0,1.88-2.13,3.01-5.45,3.01s-5.46-1.12-5.45-3.01c0-1.85,2.1-2.97,5.45-2.95ZM864.74,33.69c2.17,0,3.47-.51,3.48-1.49,0-.94-1.31-1.45-3.48-1.46-2.21,0-3.51.52-3.5,1.46,0,.98,1.29,1.49,3.5,1.49ZM870.11,28.92h-1.86v-4.03h-1.58v3.52h-1.83v-8.77h1.83v3.64h1.58v-3.94h1.86v9.58Z"/>
          <path class="cls-1" d="M875.92,21.93v-.12h-3.3v-1.58h8.58v1.58h-3.29v.14c0,1.91,1.28,3.88,3.74,4.71l-.98,1.55c-1.78-.61-3.03-1.82-3.73-3.32-.7,1.67-2.02,3-3.9,3.62l-1-1.53c2.53-.84,3.88-2.95,3.88-5.04ZM874.82,29.24h10.56v5.78h-10.56v-5.78ZM883.47,33.44v-2.65h-6.7v2.65h6.7ZM885.38,28.56h-1.95v-3.85h-2.74v-1.6h2.74v-3.78h1.95v9.23Z"/>
        </g>
      </g>
    </g>
  </g>
</svg>