<?xml version="1.0" encoding="UTF-8"?>
<svg id="_레이어_2" data-name="레이어 2" xmlns="http://www.w3.org/2000/svg" viewBox="0 0 46.63 80">
  <defs>
    <style>
      .cls-1 {
        fill: #163c9d;
        stroke-width: 0px;
      }
    </style>
  </defs>
  <g id="_레이어_1-2" data-name="레이어 1">
    <path class="cls-1" d="M43.28,0H3.35C1.51,0,0,1.65,0,3.67v72.65c0,2.02,1.51,3.68,3.35,3.68h39.92c1.84,0,3.35-1.66,3.35-3.68V3.67c0-2.02-1.52-3.67-3.35-3.67ZM18.6,3.71h9.4c.36,0,.65.21.65.46s-.29.46-.65.46h-9.4c-.37,0-.66-.2-.66-.46s.28-.46.66-.46ZM23.67,78.16c-1.88,0-3.4-1.51-3.4-3.38s1.53-3.37,3.4-3.37,3.41,1.51,3.41,3.37-1.52,3.38-3.41,3.38ZM43.85,65.96c0,1.46-1.32,2.65-2.93,2.65H6.09c-.75,0-1.44-.27-1.96-.71-.58-.48-.95-1.17-.95-1.94V13.69c0-1.45,1.31-2.65,2.91-2.65h34.83c.82,0,1.57.32,2.1.82.51.48.82,1.12.82,1.83v52.27Z"/>
  </g>
</svg>