<?xml version="1.0" encoding="UTF-8"?>
<svg id="_레이어_2" data-name="레이어 2" xmlns="http://www.w3.org/2000/svg" viewBox="0 0 80 80">
  <defs>
    <style>
      .cls-1 {
        fill: #163c9d;
        stroke-width: 0px;
      }
    </style>
  </defs>
  <g id="_레이어_1-2" data-name="레이어 1">
    <g>
      <path class="cls-1" d="M43.95,23.98l-6,6c-.57.57-1.05,1.21-1.42,1.89,2.93.12,5.83,1.3,8.07,3.54,4.73,4.74,4.73,12.44,0,17.17l-14.49,14.49c-4.74,4.74-12.44,4.74-17.17,0-4.74-4.74-4.74-12.44,0-17.17l6.91-6.91c-1.22-4.24-1.3-8.75-.24-13.03l-13.3,13.3c-8.39,8.39-8.39,22.05,0,30.45,8.39,8.39,22.05,8.39,30.45,0l14.49-14.49c8.39-8.39,8.39-22.05,0-30.45-2.14-2.14-4.63-3.74-7.28-4.79Z"/>
      <path class="cls-1" d="M73.7,6.3c-8.39-8.39-22.05-8.39-30.45,0l-14.49,14.49c-8.39,8.39-8.39,22.05,0,30.45,2.14,2.14,4.63,3.74,7.28,4.79l6-6c.57-.57,1.05-1.21,1.42-1.89-2.93-.12-5.83-1.3-8.07-3.54-4.74-4.73-4.74-12.44,0-17.17l14.49-14.49c4.74-4.74,12.44-4.74,17.17,0,4.74,4.74,4.74,12.44,0,17.17l-6.91,6.91c1.22,4.24,1.3,8.75.24,13.03l13.3-13.3c8.39-8.39,8.39-22.05,0-30.45Z"/>
    </g>
  </g>
</svg>