<?xml version="1.0" encoding="UTF-8"?>
<svg id="_레이어_2" data-name="레이어 2" xmlns="http://www.w3.org/2000/svg" viewBox="0 0 64.15 80">
  <defs>
    <style>
      .cls-1 {
        fill: #163c9d;
        stroke-width: 0px;
      }
    </style>
  </defs>
  <g id="_레이어_1-2" data-name="레이어 1">
    <g>
      <g>
        <path class="cls-1" d="M32.07,0C20.13,0,10.41,9.72,10.41,21.66s9.72,21.66,21.66,21.66,21.66-9.72,21.66-21.66S44.02,0,32.07,0ZM32.07,39.84c-10.04,0-18.18-8.14-18.18-18.18S22.03,3.48,32.07,3.48s18.18,8.14,18.18,18.18-8.14,18.18-18.18,18.18Z"/>
        <path class="cls-1" d="M32.07,5.41c-8.97,0-16.25,7.27-16.25,16.25s7.27,16.25,16.25,16.25,16.24-7.27,16.24-16.25-7.27-16.25-16.24-16.25ZM32.85,29.86v2.78h-1.68v-2.7c-1.55-.03-3.16-.51-4.09-1.18l.64-1.79c.96.64,2.35,1.15,3.85,1.15,1.9,0,3.18-1.1,3.18-2.62s-1.04-2.38-3.02-3.18c-2.73-1.07-4.41-2.3-4.41-4.63s1.58-3.9,4.04-4.3v-2.7h1.66v2.6c1.6.05,2.7.48,3.48.93l-.67,1.77c-.56-.32-1.66-.91-3.37-.91-2.06,0-2.83,1.23-2.83,2.3,0,1.39.99,2.09,3.31,3.05,2.75,1.12,4.14,2.51,4.14,4.89,0,2.11-1.47,4.09-4.22,4.55Z"/>
      </g>
      <path class="cls-1" d="M60.6,56.92l-15.39,1.01c-.73.05-1.27.64-1.37,1.32-.06.4-.16.8-.32,1.19-.86,2.15-2.9,3.54-5.22,3.54-.44,0-.88-.05-1.31-.15l-11.17-2.68,2.08-2.23,9.7,2.33c1.41.34,2.9-.4,3.45-1.79.61-1.52-.14-3.25-1.66-3.86l-11.51-4.58c-.64-.25-1.38-.28-2.08,0l-1.25.49L0,58.41v21.59s15.63-8.72,21.43-9.62c4.39-.68,13.25,2.63,17.66,2.05,6.05-.8,22.68-8.99,22.68-8.99,1.46-.43,2.48-1.83,2.38-3.41-.12-1.84-1.71-3.23-3.54-3.11Z"/>
    </g>
  </g>
</svg>