<?xml version="1.0" encoding="UTF-8"?>
<svg id="_레이어_2" data-name="레이어 2" xmlns="http://www.w3.org/2000/svg" viewBox="0 0 106.84 80">
  <defs>
    <style>
      .cls-1 {
        fill: #163c9d;
        stroke-width: 0px;
      }
    </style>
  </defs>
  <g id="_레이어_1-2" data-name="레이어 1">
    <g>
      <path class="cls-1" d="M104.33,24.9L41.04.26c-2.06-.8-4.43.31-5.27,2.47l-2.52,6.48-6.27,16.09,48.97.02c3.93,0,7.12,3.29,7.12,7.34v7.31s-.02,29.94-.02,29.94l3.27,1.27c2.06.8,4.43-.31,5.27-2.47l12.44-31.95,2.52-6.48c.84-2.16-.15-4.59-2.21-5.39Z"/>
      <path class="cls-1" d="M75.93,28.19H4.24c-2.33,0-4.24,1.91-4.24,4.24v6.99h80.17v-6.99c0-2.33-1.91-4.24-4.24-4.24Z"/>
      <path class="cls-1" d="M0,43.19v32.57c0,2.33,1.91,4.24,4.24,4.24h71.69c2.33,0,4.24-1.91,4.24-4.24v-32.57H0ZM17.32,63.61c.24.61.56,1.13.98,1.56.42.43.92.77,1.51.99.59.23,1.24.34,1.94.34.82,0,1.56-.17,2.22-.52.66-.34,1.27-.84,1.83-1.5l3.09,2.8c-.83,1.03-1.88,1.83-3.13,2.39-1.25.56-2.67.85-4.26.85-1.36,0-2.61-.22-3.77-.65-1.15-.43-2.15-1.05-2.99-1.85-.84-.8-1.5-1.75-1.98-2.83-.47-1.09-.71-2.29-.71-3.59s.24-2.51.71-3.59,1.13-2.03,1.98-2.83c.84-.8,1.84-1.42,2.99-1.85,1.15-.43,2.41-.65,3.77-.65,1.59,0,3.01.28,4.26.83,1.25.56,2.29,1.36,3.13,2.4l-3.09,2.8c-.56-.65-1.17-1.15-1.83-1.5s-1.4-.52-2.22-.52c-.7,0-1.35.11-1.94.34-.59.23-1.09.56-1.51.99-.42.43-.74.95-.98,1.56-.24.61-.36,1.28-.36,2.01s.12,1.41.36,2.01ZM46.56,70.19l-.04-9.11-4.42,7.42h-2.16l-4.39-7.17v8.86h-4.49v-17.18h4l6.05,9.92,5.88-9.92h4l.05,17.18h-4.47ZM67.26,67.74c-.56.84-1.41,1.52-2.53,2.02s-2.53.76-4.23.76c-1.41,0-2.76-.18-4.06-.53-1.3-.35-2.36-.81-3.18-1.36l1.6-3.58c.77.49,1.66.9,2.66,1.21s2.01.48,3.01.48c.67,0,1.21-.06,1.62-.18.41-.12.71-.29.9-.49.19-.2.28-.45.28-.72,0-.39-.18-.7-.54-.93s-.83-.42-1.4-.56c-.57-.15-1.21-.29-1.9-.44-.7-.15-1.39-.34-2.09-.56s-1.33-.53-1.9-.9c-.57-.37-1.04-.85-1.4-1.45-.36-.6-.54-1.35-.54-2.27,0-1.03.28-1.96.85-2.8.56-.83,1.41-1.5,2.54-2.01,1.13-.51,2.54-.76,4.22-.76,1.13,0,2.24.13,3.32.38s2.06.63,2.91,1.12l-1.5,3.61c-.82-.44-1.63-.77-2.43-.99s-1.58-.33-2.33-.33c-.67,0-1.21.07-1.62.21-.41.14-.7.32-.88.55-.18.23-.27.49-.27.79,0,.38.18.67.53.9.35.22.82.4,1.4.54.58.14,1.22.28,1.91.43s1.39.33,2.09.55c.7.22,1.33.52,1.9.88s1.03.85,1.39,1.45c.35.6.53,1.35.53,2.24,0,1-.28,1.92-.85,2.76Z"/>
    </g>
  </g>
</svg>